<mxfile host="app.diagrams.net" modified="2023-09-27T10:31:46.246Z" agent="Mozilla/5.0 (Windows NT 10.0; Win64; x64) AppleWebKit/537.36 (KHTML, like Gecko) Chrome/116.0.0.0 Safari/537.36" etag="ZGzZYmiOHQ70vXcjASjE" version="21.1.1" type="device">
  <diagram name="Page-1" id="b6Akrv2x69dyuVo3l9sx">
    <mxGraphModel dx="1534" dy="617" grid="1" gridSize="10" guides="1" tooltips="1" connect="1" arrows="1" fold="1" page="0" pageScale="1" pageWidth="850" pageHeight="1100" math="0" shadow="0">
      <root>
        <mxCell id="0" />
        <mxCell id="1" parent="0" />
        <mxCell id="_myPesltfJKZzVE3mpp7-2" value="&lt;div style=&quot;font-size: 9px;&quot;&gt;&lt;font style=&quot;font-size: 9px;&quot;&gt;module FullAdder (&lt;/font&gt;&lt;/div&gt;&lt;div style=&quot;font-size: 9px;&quot;&gt;&lt;font style=&quot;font-size: 9px;&quot;&gt;&amp;nbsp; &amp;nbsp; input A,&lt;/font&gt;&lt;/div&gt;&lt;div style=&quot;font-size: 9px;&quot;&gt;&lt;font style=&quot;font-size: 9px;&quot;&gt;&amp;nbsp; &amp;nbsp; input B,&lt;/font&gt;&lt;/div&gt;&lt;div style=&quot;font-size: 9px;&quot;&gt;&lt;font style=&quot;font-size: 9px;&quot;&gt;&amp;nbsp; &amp;nbsp; input CIN,&lt;/font&gt;&lt;/div&gt;&lt;div style=&quot;font-size: 9px;&quot;&gt;&lt;font style=&quot;font-size: 9px;&quot;&gt;&amp;nbsp; &amp;nbsp; output SUM,&lt;/font&gt;&lt;/div&gt;&lt;div style=&quot;font-size: 9px;&quot;&gt;&lt;font style=&quot;font-size: 9px;&quot;&gt;&amp;nbsp; &amp;nbsp; output COUT);&lt;/font&gt;&lt;/div&gt;&lt;div style=&quot;font-size: 9px;&quot;&gt;&lt;font style=&quot;font-size: 9px;&quot;&gt;&lt;br&gt;&lt;/font&gt;&lt;/div&gt;&lt;div style=&quot;font-size: 9px;&quot;&gt;&lt;font style=&quot;font-size: 9px;&quot;&gt;&amp;nbsp; &amp;nbsp; wire n1,n2,n8;&lt;/font&gt;&lt;/div&gt;&lt;div style=&quot;font-size: 9px;&quot;&gt;&lt;font style=&quot;font-size: 9px;&quot;&gt;&lt;br&gt;&lt;/font&gt;&lt;/div&gt;&lt;div style=&quot;font-size: 9px;&quot;&gt;&lt;font style=&quot;font-size: 9px;&quot;&gt;&amp;nbsp; &amp;nbsp; BUFFSGD3BWP30P140HVT CLK_B1 (.I(B), .Z(n1) );&lt;/font&gt;&lt;/div&gt;&lt;div style=&quot;font-size: 9px;&quot;&gt;&lt;font style=&quot;font-size: 9px;&quot;&gt;&lt;br&gt;&lt;/font&gt;&lt;/div&gt;&lt;div style=&quot;font-size: 9px;&quot;&gt;&lt;font style=&quot;font-size: 9px;&quot;&gt;&amp;nbsp; &amp;nbsp; XOR2SGD0BWP30P140 G1 (.A1(A), .A2(n1), .Z(n2));&lt;/font&gt;&lt;/div&gt;&lt;div style=&quot;font-size: 9px;&quot;&gt;&lt;font style=&quot;font-size: 9px;&quot;&gt;&amp;nbsp; &amp;nbsp; XOR2SGD0BWP30P140 G2 (.A1(CIN), .A2(n2), .Z(n8));&lt;/font&gt;&lt;/div&gt;&lt;div style=&quot;font-size: 9px;&quot;&gt;&lt;font style=&quot;font-size: 9px;&quot;&gt;&lt;br&gt;&lt;/font&gt;&lt;/div&gt;&lt;div style=&quot;font-size: 9px;&quot;&gt;&lt;font style=&quot;font-size: 9px;&quot;&gt;&amp;nbsp; &amp;nbsp; BUFFSGD3BWP30P140HVT CLK_B2 (.I(n8), .Z(SUM) );&lt;/font&gt;&lt;/div&gt;&lt;div style=&quot;font-size: 9px;&quot;&gt;&lt;font style=&quot;font-size: 9px;&quot;&gt;&lt;br&gt;&lt;/font&gt;&lt;/div&gt;&lt;div style=&quot;font-size: 9px;&quot;&gt;&lt;font style=&quot;font-size: 9px;&quot;&gt;&amp;nbsp; &amp;nbsp; BUFFSGD3BWP30P140HVT CLK_B3 (.I(CIN), .Z(COUT) );&lt;/font&gt;&lt;/div&gt;&lt;div style=&quot;font-size: 9px;&quot;&gt;&lt;font style=&quot;font-size: 9px;&quot;&gt;&lt;br&gt;&lt;/font&gt;&lt;/div&gt;&lt;div style=&quot;font-size: 9px;&quot;&gt;&lt;font style=&quot;font-size: 9px;&quot;&gt;&lt;br&gt;&lt;/font&gt;&lt;/div&gt;&lt;div style=&quot;font-size: 9px;&quot;&gt;&lt;font style=&quot;font-size: 9px;&quot;&gt;endmodule&lt;/font&gt;&lt;/div&gt;&lt;div style=&quot;font-size: 9px;&quot;&gt;&lt;br&gt;&lt;/div&gt;" style="whiteSpace=wrap;html=1;aspect=fixed;align=left;" vertex="1" parent="1">
          <mxGeometry x="10" y="90" width="282" height="282" as="geometry" />
        </mxCell>
        <mxCell id="_myPesltfJKZzVE3mpp7-3" value="CLK_B1" style="whiteSpace=wrap;html=1;aspect=fixed;" vertex="1" parent="1">
          <mxGeometry x="453" y="60" width="80" height="80" as="geometry" />
        </mxCell>
        <mxCell id="_myPesltfJKZzVE3mpp7-4" value="G1" style="whiteSpace=wrap;html=1;aspect=fixed;" vertex="1" parent="1">
          <mxGeometry x="453" y="180" width="80" height="80" as="geometry" />
        </mxCell>
        <mxCell id="_myPesltfJKZzVE3mpp7-5" value="CLK_B3" style="whiteSpace=wrap;html=1;aspect=fixed;" vertex="1" parent="1">
          <mxGeometry x="691" y="180" width="80" height="80" as="geometry" />
        </mxCell>
        <mxCell id="_myPesltfJKZzVE3mpp7-6" value="CLK_B2" style="whiteSpace=wrap;html=1;aspect=fixed;" vertex="1" parent="1">
          <mxGeometry x="691" y="60" width="80" height="80" as="geometry" />
        </mxCell>
        <mxCell id="_myPesltfJKZzVE3mpp7-7" value="G2" style="whiteSpace=wrap;html=1;aspect=fixed;" vertex="1" parent="1">
          <mxGeometry x="453" y="300" width="80" height="80" as="geometry" />
        </mxCell>
        <mxCell id="_myPesltfJKZzVE3mpp7-8" value="" style="shape=waypoint;sketch=0;fillStyle=solid;size=6;pointerEvents=1;points=[];fillColor=none;resizable=0;rotatable=0;perimeter=centerPerimeter;snapToPoint=1;" vertex="1" parent="1">
          <mxGeometry x="360" y="90" width="20" height="20" as="geometry" />
        </mxCell>
        <mxCell id="_myPesltfJKZzVE3mpp7-9" value="" style="shape=waypoint;sketch=0;fillStyle=solid;size=6;pointerEvents=1;points=[];fillColor=none;resizable=0;rotatable=0;perimeter=centerPerimeter;snapToPoint=1;" vertex="1" parent="1">
          <mxGeometry x="360" y="330" width="20" height="20" as="geometry" />
        </mxCell>
        <mxCell id="_myPesltfJKZzVE3mpp7-10" value="" style="shape=waypoint;sketch=0;fillStyle=solid;size=6;pointerEvents=1;points=[];fillColor=none;resizable=0;rotatable=0;perimeter=centerPerimeter;snapToPoint=1;" vertex="1" parent="1">
          <mxGeometry x="360" y="210" width="20" height="20" as="geometry" />
        </mxCell>
        <mxCell id="_myPesltfJKZzVE3mpp7-11" value="&lt;font style=&quot;font-size: 20px;&quot;&gt;FullAdder&lt;/font&gt;" style="text;strokeColor=none;fillColor=none;html=1;fontSize=24;fontStyle=1;verticalAlign=middle;align=center;" vertex="1" parent="1">
          <mxGeometry x="410" width="100" height="40" as="geometry" />
        </mxCell>
        <UserObject label="&lt;span style=&quot;font-weight: normal;&quot;&gt;B&lt;/span&gt;" placeholders="1" name="Variable" id="_myPesltfJKZzVE3mpp7-12">
          <mxCell style="text;html=1;strokeColor=none;fillColor=none;align=center;verticalAlign=middle;whiteSpace=wrap;overflow=hidden;fontStyle=1" vertex="1" parent="1">
            <mxGeometry x="304" y="93" width="80" height="20" as="geometry" />
          </mxCell>
        </UserObject>
        <UserObject label="&lt;span style=&quot;font-weight: normal;&quot;&gt;A&lt;/span&gt;" placeholders="1" name="Variable" id="_myPesltfJKZzVE3mpp7-14">
          <mxCell style="text;html=1;strokeColor=none;fillColor=none;align=center;verticalAlign=middle;whiteSpace=wrap;overflow=hidden;fontStyle=1" vertex="1" parent="1">
            <mxGeometry x="302" y="213" width="80" height="20" as="geometry" />
          </mxCell>
        </UserObject>
        <UserObject label="&lt;span style=&quot;font-weight: normal;&quot;&gt;CIN&lt;/span&gt;" placeholders="1" name="Variable" id="_myPesltfJKZzVE3mpp7-15">
          <mxCell style="text;html=1;strokeColor=none;fillColor=none;align=center;verticalAlign=middle;whiteSpace=wrap;overflow=hidden;fontStyle=1" vertex="1" parent="1">
            <mxGeometry x="304" y="333" width="80" height="20" as="geometry" />
          </mxCell>
        </UserObject>
        <mxCell id="_myPesltfJKZzVE3mpp7-20" value="" style="endArrow=none;html=1;rounded=0;entryX=0;entryY=0.5;entryDx=0;entryDy=0;" edge="1" parent="1" target="_myPesltfJKZzVE3mpp7-3">
          <mxGeometry width="50" height="50" relative="1" as="geometry">
            <mxPoint x="373" y="100" as="sourcePoint" />
            <mxPoint x="453" y="170" as="targetPoint" />
          </mxGeometry>
        </mxCell>
        <mxCell id="_myPesltfJKZzVE3mpp7-21" value="" style="endArrow=none;html=1;rounded=0;exitX=0.75;exitY=0.5;exitDx=0;exitDy=0;exitPerimeter=0;entryX=0;entryY=0.5;entryDx=0;entryDy=0;" edge="1" parent="1" target="_myPesltfJKZzVE3mpp7-4">
          <mxGeometry width="50" height="50" relative="1" as="geometry">
            <mxPoint x="373" y="220" as="sourcePoint" />
            <mxPoint x="453" y="170" as="targetPoint" />
          </mxGeometry>
        </mxCell>
        <mxCell id="_myPesltfJKZzVE3mpp7-22" value="" style="endArrow=none;html=1;rounded=0;entryX=0;entryY=0.5;entryDx=0;entryDy=0;" edge="1" parent="1" target="_myPesltfJKZzVE3mpp7-7">
          <mxGeometry width="50" height="50" relative="1" as="geometry">
            <mxPoint x="373" y="340" as="sourcePoint" />
            <mxPoint x="453" y="170" as="targetPoint" />
            <Array as="points">
              <mxPoint x="413" y="340" />
            </Array>
          </mxGeometry>
        </mxCell>
        <UserObject label="I" placeholders="1" name="Variable" id="_myPesltfJKZzVE3mpp7-23">
          <mxCell style="text;html=1;strokeColor=none;fillColor=none;align=center;verticalAlign=middle;whiteSpace=wrap;overflow=hidden;" vertex="1" parent="1">
            <mxGeometry x="413" y="80" width="50" height="20" as="geometry" />
          </mxCell>
        </UserObject>
        <UserObject label="Z" placeholders="1" name="Variable" id="_myPesltfJKZzVE3mpp7-24">
          <mxCell style="text;html=1;strokeColor=none;fillColor=none;align=center;verticalAlign=middle;whiteSpace=wrap;overflow=hidden;" vertex="1" parent="1">
            <mxGeometry x="523" y="80" width="50" height="20" as="geometry" />
          </mxCell>
        </UserObject>
        <UserObject label="A1" placeholders="1" name="Variable" id="_myPesltfJKZzVE3mpp7-25">
          <mxCell style="text;html=1;strokeColor=none;fillColor=none;align=center;verticalAlign=middle;whiteSpace=wrap;overflow=hidden;" vertex="1" parent="1">
            <mxGeometry x="413" y="200" width="50" height="20" as="geometry" />
          </mxCell>
        </UserObject>
        <UserObject label="Z" placeholders="1" name="Variable" id="_myPesltfJKZzVE3mpp7-26">
          <mxCell style="text;html=1;strokeColor=none;fillColor=none;align=center;verticalAlign=middle;whiteSpace=wrap;overflow=hidden;" vertex="1" parent="1">
            <mxGeometry x="523" y="200" width="50" height="20" as="geometry" />
          </mxCell>
        </UserObject>
        <UserObject label="A1" placeholders="1" name="Variable" id="_myPesltfJKZzVE3mpp7-27">
          <mxCell style="text;html=1;strokeColor=none;fillColor=none;align=center;verticalAlign=middle;whiteSpace=wrap;overflow=hidden;" vertex="1" parent="1">
            <mxGeometry x="413" y="320" width="50" height="20" as="geometry" />
          </mxCell>
        </UserObject>
        <UserObject label="Z" placeholders="1" name="Variable" id="_myPesltfJKZzVE3mpp7-28">
          <mxCell style="text;html=1;strokeColor=none;fillColor=none;align=center;verticalAlign=middle;whiteSpace=wrap;overflow=hidden;" vertex="1" parent="1">
            <mxGeometry x="523" y="320" width="50" height="20" as="geometry" />
          </mxCell>
        </UserObject>
        <mxCell id="_myPesltfJKZzVE3mpp7-29" value="" style="endArrow=none;html=1;rounded=0;entryX=1;entryY=1;entryDx=0;entryDy=0;" edge="1" parent="1" target="_myPesltfJKZzVE3mpp7-24">
          <mxGeometry width="50" height="50" relative="1" as="geometry">
            <mxPoint x="533" y="100" as="sourcePoint" />
            <mxPoint x="583" y="50" as="targetPoint" />
          </mxGeometry>
        </mxCell>
        <mxCell id="_myPesltfJKZzVE3mpp7-30" value="" style="endArrow=none;html=1;rounded=0;" edge="1" parent="1">
          <mxGeometry width="50" height="50" relative="1" as="geometry">
            <mxPoint x="573" y="160" as="sourcePoint" />
            <mxPoint x="573" y="100" as="targetPoint" />
          </mxGeometry>
        </mxCell>
        <mxCell id="_myPesltfJKZzVE3mpp7-31" value="" style="endArrow=none;html=1;rounded=0;" edge="1" parent="1">
          <mxGeometry width="50" height="50" relative="1" as="geometry">
            <mxPoint x="493" y="160" as="sourcePoint" />
            <mxPoint x="573" y="160" as="targetPoint" />
          </mxGeometry>
        </mxCell>
        <mxCell id="_myPesltfJKZzVE3mpp7-32" value="" style="endArrow=none;html=1;rounded=0;exitX=0.5;exitY=0;exitDx=0;exitDy=0;" edge="1" parent="1" source="_myPesltfJKZzVE3mpp7-4">
          <mxGeometry width="50" height="50" relative="1" as="geometry">
            <mxPoint x="443" y="210" as="sourcePoint" />
            <mxPoint x="493" y="160" as="targetPoint" />
          </mxGeometry>
        </mxCell>
        <UserObject label="A2" placeholders="1" name="Variable" id="_myPesltfJKZzVE3mpp7-33">
          <mxCell style="text;html=1;strokeColor=none;fillColor=none;align=center;verticalAlign=middle;whiteSpace=wrap;overflow=hidden;" vertex="1" parent="1">
            <mxGeometry x="453" y="160" width="50" height="20" as="geometry" />
          </mxCell>
        </UserObject>
        <UserObject label="A2" placeholders="1" name="Variable" id="_myPesltfJKZzVE3mpp7-34">
          <mxCell style="text;html=1;strokeColor=none;fillColor=none;align=center;verticalAlign=middle;whiteSpace=wrap;overflow=hidden;" vertex="1" parent="1">
            <mxGeometry x="453" y="280" width="50" height="20" as="geometry" />
          </mxCell>
        </UserObject>
        <mxCell id="_myPesltfJKZzVE3mpp7-35" value="" style="endArrow=none;html=1;rounded=0;entryX=1;entryY=1;entryDx=0;entryDy=0;" edge="1" parent="1">
          <mxGeometry width="50" height="50" relative="1" as="geometry">
            <mxPoint x="533" y="100" as="sourcePoint" />
            <mxPoint x="573" y="100" as="targetPoint" />
          </mxGeometry>
        </mxCell>
        <mxCell id="_myPesltfJKZzVE3mpp7-36" value="" style="endArrow=none;html=1;rounded=0;entryX=1;entryY=1;entryDx=0;entryDy=0;exitX=1;exitY=0.5;exitDx=0;exitDy=0;" edge="1" parent="1" source="_myPesltfJKZzVE3mpp7-4" target="_myPesltfJKZzVE3mpp7-26">
          <mxGeometry width="50" height="50" relative="1" as="geometry">
            <mxPoint x="543" y="110" as="sourcePoint" />
            <mxPoint x="583" y="110" as="targetPoint" />
          </mxGeometry>
        </mxCell>
        <mxCell id="_myPesltfJKZzVE3mpp7-38" value="" style="endArrow=none;html=1;rounded=0;" edge="1" parent="1">
          <mxGeometry width="50" height="50" relative="1" as="geometry">
            <mxPoint x="573" y="280" as="sourcePoint" />
            <mxPoint x="573" y="220" as="targetPoint" />
          </mxGeometry>
        </mxCell>
        <mxCell id="_myPesltfJKZzVE3mpp7-39" value="" style="endArrow=none;html=1;rounded=0;" edge="1" parent="1">
          <mxGeometry width="50" height="50" relative="1" as="geometry">
            <mxPoint x="493" y="280" as="sourcePoint" />
            <mxPoint x="573" y="280" as="targetPoint" />
          </mxGeometry>
        </mxCell>
        <mxCell id="_myPesltfJKZzVE3mpp7-40" value="" style="endArrow=none;html=1;rounded=0;" edge="1" parent="1">
          <mxGeometry width="50" height="50" relative="1" as="geometry">
            <mxPoint x="493" y="300" as="sourcePoint" />
            <mxPoint x="493" y="280" as="targetPoint" />
          </mxGeometry>
        </mxCell>
        <mxCell id="_myPesltfJKZzVE3mpp7-42" value="" style="endArrow=none;html=1;rounded=0;" edge="1" parent="1">
          <mxGeometry width="50" height="50" relative="1" as="geometry">
            <mxPoint x="533" y="340" as="sourcePoint" />
            <mxPoint x="613" y="340" as="targetPoint" />
          </mxGeometry>
        </mxCell>
        <mxCell id="_myPesltfJKZzVE3mpp7-43" value="" style="endArrow=none;html=1;rounded=0;" edge="1" parent="1">
          <mxGeometry width="50" height="50" relative="1" as="geometry">
            <mxPoint x="613" y="340" as="sourcePoint" />
            <mxPoint x="613" y="100" as="targetPoint" />
          </mxGeometry>
        </mxCell>
        <mxCell id="_myPesltfJKZzVE3mpp7-44" value="" style="endArrow=none;html=1;rounded=0;entryX=0;entryY=0.5;entryDx=0;entryDy=0;" edge="1" parent="1" target="_myPesltfJKZzVE3mpp7-6">
          <mxGeometry width="50" height="50" relative="1" as="geometry">
            <mxPoint x="613" y="100" as="sourcePoint" />
            <mxPoint x="663" y="50" as="targetPoint" />
          </mxGeometry>
        </mxCell>
        <mxCell id="_myPesltfJKZzVE3mpp7-45" value="" style="endArrow=none;html=1;rounded=0;" edge="1" parent="1">
          <mxGeometry width="50" height="50" relative="1" as="geometry">
            <mxPoint x="413" y="340" as="sourcePoint" />
            <mxPoint x="413" y="400" as="targetPoint" />
          </mxGeometry>
        </mxCell>
        <mxCell id="_myPesltfJKZzVE3mpp7-46" value="" style="endArrow=none;html=1;rounded=0;" edge="1" parent="1">
          <mxGeometry width="50" height="50" relative="1" as="geometry">
            <mxPoint x="413" y="400" as="sourcePoint" />
            <mxPoint x="653" y="400" as="targetPoint" />
          </mxGeometry>
        </mxCell>
        <mxCell id="_myPesltfJKZzVE3mpp7-47" value="" style="endArrow=none;html=1;rounded=0;" edge="1" parent="1">
          <mxGeometry width="50" height="50" relative="1" as="geometry">
            <mxPoint x="653" y="400" as="sourcePoint" />
            <mxPoint x="653" y="220" as="targetPoint" />
          </mxGeometry>
        </mxCell>
        <mxCell id="_myPesltfJKZzVE3mpp7-48" value="" style="endArrow=none;html=1;rounded=0;entryX=0;entryY=0.5;entryDx=0;entryDy=0;" edge="1" parent="1" target="_myPesltfJKZzVE3mpp7-5">
          <mxGeometry width="50" height="50" relative="1" as="geometry">
            <mxPoint x="653" y="220" as="sourcePoint" />
            <mxPoint x="703" y="170" as="targetPoint" />
          </mxGeometry>
        </mxCell>
        <mxCell id="_myPesltfJKZzVE3mpp7-49" value="" style="endArrow=none;html=1;rounded=0;" edge="1" parent="1">
          <mxGeometry width="50" height="50" relative="1" as="geometry">
            <mxPoint x="770" y="100" as="sourcePoint" />
            <mxPoint x="863" y="100" as="targetPoint" />
          </mxGeometry>
        </mxCell>
        <mxCell id="_myPesltfJKZzVE3mpp7-50" value="" style="endArrow=none;html=1;rounded=0;" edge="1" parent="1" source="_myPesltfJKZzVE3mpp7-52">
          <mxGeometry width="50" height="50" relative="1" as="geometry">
            <mxPoint x="771" y="220" as="sourcePoint" />
            <mxPoint x="813" y="220" as="targetPoint" />
          </mxGeometry>
        </mxCell>
        <mxCell id="_myPesltfJKZzVE3mpp7-51" value="" style="shape=waypoint;sketch=0;fillStyle=solid;size=6;pointerEvents=1;points=[];fillColor=none;resizable=0;rotatable=0;perimeter=centerPerimeter;snapToPoint=1;" vertex="1" parent="1">
          <mxGeometry x="853" y="90" width="20" height="20" as="geometry" />
        </mxCell>
        <mxCell id="_myPesltfJKZzVE3mpp7-53" value="" style="endArrow=none;html=1;rounded=0;" edge="1" parent="1" target="_myPesltfJKZzVE3mpp7-52">
          <mxGeometry width="50" height="50" relative="1" as="geometry">
            <mxPoint x="771" y="220" as="sourcePoint" />
            <mxPoint x="813" y="220" as="targetPoint" />
          </mxGeometry>
        </mxCell>
        <mxCell id="_myPesltfJKZzVE3mpp7-52" value="" style="shape=waypoint;sketch=0;fillStyle=solid;size=6;pointerEvents=1;points=[];fillColor=none;resizable=0;rotatable=0;perimeter=centerPerimeter;snapToPoint=1;" vertex="1" parent="1">
          <mxGeometry x="853" y="210" width="20" height="20" as="geometry" />
        </mxCell>
        <UserObject label="&lt;span style=&quot;font-weight: normal;&quot;&gt;SUM&lt;/span&gt;" placeholders="1" name="Variable" id="_myPesltfJKZzVE3mpp7-54">
          <mxCell style="text;html=1;strokeColor=none;fillColor=none;align=center;verticalAlign=middle;whiteSpace=wrap;overflow=hidden;fontStyle=1" vertex="1" parent="1">
            <mxGeometry x="850" y="90" width="80" height="20" as="geometry" />
          </mxCell>
        </UserObject>
        <UserObject label="&lt;span style=&quot;font-weight: normal;&quot;&gt;COUT&lt;/span&gt;" placeholders="1" name="Variable" id="_myPesltfJKZzVE3mpp7-55">
          <mxCell style="text;html=1;strokeColor=none;fillColor=none;align=center;verticalAlign=middle;whiteSpace=wrap;overflow=hidden;fontStyle=1" vertex="1" parent="1">
            <mxGeometry x="850" y="210" width="80" height="20" as="geometry" />
          </mxCell>
        </UserObject>
        <UserObject label="I" placeholders="1" name="Variable" id="_myPesltfJKZzVE3mpp7-57">
          <mxCell style="text;html=1;strokeColor=none;fillColor=none;align=center;verticalAlign=middle;whiteSpace=wrap;overflow=hidden;" vertex="1" parent="1">
            <mxGeometry x="653" y="80" width="50" height="20" as="geometry" />
          </mxCell>
        </UserObject>
        <UserObject label="Z" placeholders="1" name="Variable" id="_myPesltfJKZzVE3mpp7-58">
          <mxCell style="text;html=1;strokeColor=none;fillColor=none;align=center;verticalAlign=middle;whiteSpace=wrap;overflow=hidden;" vertex="1" parent="1">
            <mxGeometry x="753" y="80" width="50" height="20" as="geometry" />
          </mxCell>
        </UserObject>
        <UserObject label="I" placeholders="1" name="Variable" id="_myPesltfJKZzVE3mpp7-59">
          <mxCell style="text;html=1;strokeColor=none;fillColor=none;align=center;verticalAlign=middle;whiteSpace=wrap;overflow=hidden;" vertex="1" parent="1">
            <mxGeometry x="653" y="200" width="50" height="20" as="geometry" />
          </mxCell>
        </UserObject>
        <UserObject label="Z" placeholders="1" name="Variable" id="_myPesltfJKZzVE3mpp7-60">
          <mxCell style="text;html=1;strokeColor=none;fillColor=none;align=center;verticalAlign=middle;whiteSpace=wrap;overflow=hidden;" vertex="1" parent="1">
            <mxGeometry x="753" y="200" width="50" height="20" as="geometry" />
          </mxCell>
        </UserObject>
        <UserObject label="n1" placeholders="1" name="Variable" id="_myPesltfJKZzVE3mpp7-61">
          <mxCell style="text;html=1;strokeColor=none;fillColor=none;align=center;verticalAlign=middle;whiteSpace=wrap;overflow=hidden;" vertex="1" parent="1">
            <mxGeometry x="538" y="140" width="50" height="20" as="geometry" />
          </mxCell>
        </UserObject>
        <UserObject label="n2" placeholders="1" name="Variable" id="_myPesltfJKZzVE3mpp7-62">
          <mxCell style="text;html=1;strokeColor=none;fillColor=none;align=center;verticalAlign=middle;whiteSpace=wrap;overflow=hidden;" vertex="1" parent="1">
            <mxGeometry x="523" y="260" width="50" height="20" as="geometry" />
          </mxCell>
        </UserObject>
        <UserObject label="n8" placeholders="1" name="Variable" id="_myPesltfJKZzVE3mpp7-63">
          <mxCell style="text;html=1;strokeColor=none;fillColor=none;align=center;verticalAlign=middle;whiteSpace=wrap;overflow=hidden;" vertex="1" parent="1">
            <mxGeometry x="573" y="320" width="50" height="20" as="geometry" />
          </mxCell>
        </UserObject>
        <mxCell id="_myPesltfJKZzVE3mpp7-140" value="&lt;ol style=&quot;&quot;&gt;&lt;li style=&quot;font-size: 15px;&quot;&gt;&lt;b&gt;Instance Ref_names&lt;/b&gt;&amp;nbsp;: CLK_B1, CLK_B2, CLK_B3, G1, G2&lt;/li&gt;&lt;li style=&quot;font-size: 15px;&quot;&gt;&lt;b&gt;Ports &lt;/b&gt;: A, B, CIN, SUM, COUT&lt;/li&gt;&lt;li style=&quot;font-size: 15px;&quot;&gt;&lt;b&gt;Pins &lt;/b&gt;: (I,Z) , (I,Z) , (I,Z) , (A1, A2, Z) , (A1, A2, Z)&lt;/li&gt;&lt;li style=&quot;font-size: 15px;&quot;&gt;&lt;b&gt;Nets &lt;/b&gt;: n1, n2, n8&lt;/li&gt;&lt;li style=&quot;font-size: 15px;&quot;&gt;&lt;b&gt;Port derived nets &lt;/b&gt;:&amp;nbsp;&lt;/li&gt;&lt;ol style=&quot;font-size: 15px;&quot;&gt;&lt;li&gt;B -&amp;gt; I &lt;i&gt;CLK_B1 , &lt;/i&gt;&lt;b style=&quot;&quot;&gt;B&lt;/b&gt;&lt;/li&gt;&lt;li&gt;A -&amp;gt; A1 &lt;i&gt;G1&lt;/i&gt;&lt;b style=&quot;font-style: italic;&quot;&gt;&amp;nbsp;&lt;/b&gt;&lt;i&gt;, &lt;/i&gt;&lt;b style=&quot;&quot;&gt;A&lt;/b&gt;&lt;/li&gt;&lt;li&gt;CIN -&amp;gt; A1 &lt;i&gt;G2 , &lt;/i&gt;&lt;b style=&quot;&quot;&gt;CIN&lt;/b&gt;&lt;/li&gt;&lt;li&gt;CIN -&amp;gt; I &lt;i&gt;CLK_B3 &lt;/i&gt;&lt;b style=&quot;&quot;&gt;CIN&lt;/b&gt;&lt;/li&gt;&lt;li&gt;&lt;i&gt;Z -&amp;gt; &lt;/i&gt;SUM &lt;i&gt;CLK_B2 &lt;/i&gt;&lt;b style=&quot;&quot;&gt;Z&lt;/b&gt;&lt;/li&gt;&lt;li&gt;Z -&amp;gt; COUT &lt;i&gt;CLK_B3 &lt;/i&gt;&lt;b style=&quot;&quot;&gt;Z&lt;/b&gt;&lt;/li&gt;&lt;/ol&gt;&lt;/ol&gt;" style="text;strokeColor=none;fillColor=none;html=1;whiteSpace=wrap;verticalAlign=middle;overflow=hidden;" vertex="1" parent="1">
          <mxGeometry x="90" y="430" width="460" height="280" as="geometry" />
        </mxCell>
        <mxCell id="_myPesltfJKZzVE3mpp7-141" value="&lt;div style=&quot;&quot;&gt;&lt;div style=&quot;&quot;&gt;&lt;font size=&quot;1&quot;&gt;module FourBitAdder (&lt;/font&gt;&lt;/div&gt;&lt;div style=&quot;&quot;&gt;&lt;font size=&quot;1&quot;&gt;&amp;nbsp; &amp;nbsp; input [3:0] A,&lt;/font&gt;&lt;/div&gt;&lt;div style=&quot;&quot;&gt;&lt;font size=&quot;1&quot;&gt;&amp;nbsp; &amp;nbsp; input [3:0] B,&lt;/font&gt;&lt;/div&gt;&lt;div style=&quot;&quot;&gt;&lt;font size=&quot;1&quot;&gt;&amp;nbsp; &amp;nbsp; output [3:0] SUM,&lt;/font&gt;&lt;/div&gt;&lt;div style=&quot;&quot;&gt;&lt;font size=&quot;1&quot;&gt;&amp;nbsp; &amp;nbsp; output COUT);&lt;/font&gt;&lt;/div&gt;&lt;div style=&quot;&quot;&gt;&lt;font size=&quot;1&quot;&gt;&lt;br&gt;&lt;/font&gt;&lt;/div&gt;&lt;div style=&quot;&quot;&gt;&lt;font size=&quot;1&quot;&gt;&amp;nbsp; &amp;nbsp; wire [3:0] carry;&lt;/font&gt;&lt;/div&gt;&lt;div style=&quot;&quot;&gt;&lt;font size=&quot;1&quot;&gt;&amp;nbsp; &amp;nbsp; wire [3:0] sum;&lt;/font&gt;&lt;/div&gt;&lt;div style=&quot;&quot;&gt;&lt;font size=&quot;1&quot;&gt;&lt;br&gt;&lt;/font&gt;&lt;/div&gt;&lt;div style=&quot;&quot;&gt;&lt;font size=&quot;1&quot;&gt;&amp;nbsp; &amp;nbsp; // First bit&lt;/font&gt;&lt;/div&gt;&lt;div style=&quot;&quot;&gt;&lt;font size=&quot;1&quot;&gt;&amp;nbsp; &amp;nbsp; FullAdder fa0(.A(A[0]), .B(B[0]), .CIN(1&#39;b0), .SUM(sum[0]), .COUT(carry[0]));&lt;/font&gt;&lt;/div&gt;&lt;div style=&quot;&quot;&gt;&lt;font size=&quot;1&quot;&gt;&lt;br&gt;&lt;/font&gt;&lt;/div&gt;&lt;div style=&quot;&quot;&gt;&lt;font size=&quot;1&quot;&gt;&amp;nbsp; &amp;nbsp; // Subsequent bits&lt;/font&gt;&lt;/div&gt;&lt;div style=&quot;&quot;&gt;&lt;font size=&quot;1&quot;&gt;&amp;nbsp; &amp;nbsp; FullAdder fa1(.A(A[1]), .B(B[1]), .CIN(carry[0]), .SUM(sum[1]), .COUT(carry[1]));&lt;/font&gt;&lt;/div&gt;&lt;div style=&quot;&quot;&gt;&lt;font size=&quot;1&quot;&gt;&amp;nbsp; &amp;nbsp; FullAdder fa2(.A(A[2]), .B(B[2]), .CIN(carry[1]), .SUM(sum[2]), .COUT(carry[2]));&lt;/font&gt;&lt;/div&gt;&lt;div style=&quot;&quot;&gt;&lt;font size=&quot;1&quot;&gt;&amp;nbsp; &amp;nbsp; FullAdder fa3(.A(A[3]), .B(B[3]), .CIN(carry[2]), .SUM(SUM), .COUT(COUT));&lt;/font&gt;&lt;/div&gt;&lt;div style=&quot;&quot;&gt;&lt;font size=&quot;1&quot;&gt;&lt;br&gt;&lt;/font&gt;&lt;/div&gt;&lt;div style=&quot;&quot;&gt;&lt;font size=&quot;1&quot;&gt;&amp;nbsp; &amp;nbsp; assign SUM = sum;&lt;/font&gt;&lt;/div&gt;&lt;div style=&quot;&quot;&gt;&lt;font size=&quot;1&quot;&gt;&lt;br&gt;&lt;/font&gt;&lt;/div&gt;&lt;div style=&quot;&quot;&gt;&lt;font size=&quot;1&quot;&gt;endmodule&lt;/font&gt;&lt;/div&gt;&lt;/div&gt;" style="whiteSpace=wrap;html=1;aspect=fixed;align=left;" vertex="1" parent="1">
          <mxGeometry x="-40" y="920" width="363" height="363" as="geometry" />
        </mxCell>
        <mxCell id="_myPesltfJKZzVE3mpp7-142" value="fa0" style="whiteSpace=wrap;html=1;aspect=fixed;" vertex="1" parent="1">
          <mxGeometry x="601" y="890" width="80" height="80" as="geometry" />
        </mxCell>
        <mxCell id="_myPesltfJKZzVE3mpp7-144" value="fa1" style="whiteSpace=wrap;html=1;aspect=fixed;" vertex="1" parent="1">
          <mxGeometry x="600" y="1020" width="80" height="80" as="geometry" />
        </mxCell>
        <mxCell id="_myPesltfJKZzVE3mpp7-145" value="fa2" style="whiteSpace=wrap;html=1;aspect=fixed;" vertex="1" parent="1">
          <mxGeometry x="600" y="1150" width="82" height="82" as="geometry" />
        </mxCell>
        <mxCell id="_myPesltfJKZzVE3mpp7-146" value="fa3" style="whiteSpace=wrap;html=1;aspect=fixed;" vertex="1" parent="1">
          <mxGeometry x="600" y="1270" width="80" height="80" as="geometry" />
        </mxCell>
        <mxCell id="_myPesltfJKZzVE3mpp7-149" value="" style="shape=waypoint;sketch=0;fillStyle=solid;size=6;pointerEvents=1;points=[];fillColor=none;resizable=0;rotatable=0;perimeter=centerPerimeter;snapToPoint=1;" vertex="1" parent="1">
          <mxGeometry x="428" y="950" width="20" height="20" as="geometry" />
        </mxCell>
        <mxCell id="_myPesltfJKZzVE3mpp7-150" value="" style="shape=waypoint;sketch=0;fillStyle=solid;size=6;pointerEvents=1;points=[];fillColor=none;resizable=0;rotatable=0;perimeter=centerPerimeter;snapToPoint=1;" vertex="1" parent="1">
          <mxGeometry x="428" y="970" width="20" height="20" as="geometry" />
        </mxCell>
        <mxCell id="_myPesltfJKZzVE3mpp7-151" value="" style="shape=waypoint;sketch=0;fillStyle=solid;size=6;pointerEvents=1;points=[];fillColor=none;resizable=0;rotatable=0;perimeter=centerPerimeter;snapToPoint=1;" vertex="1" parent="1">
          <mxGeometry x="428" y="990" width="20" height="20" as="geometry" />
        </mxCell>
        <mxCell id="_myPesltfJKZzVE3mpp7-152" value="" style="shape=waypoint;sketch=0;fillStyle=solid;size=6;pointerEvents=1;points=[];fillColor=none;resizable=0;rotatable=0;perimeter=centerPerimeter;snapToPoint=1;" vertex="1" parent="1">
          <mxGeometry x="428" y="1010" width="20" height="20" as="geometry" />
        </mxCell>
        <mxCell id="_myPesltfJKZzVE3mpp7-154" value="&lt;b&gt;A&lt;/b&gt;" style="text;html=1;strokeColor=none;fillColor=none;align=center;verticalAlign=middle;whiteSpace=wrap;rounded=0;" vertex="1" parent="1">
          <mxGeometry x="383" y="980" width="60" height="30" as="geometry" />
        </mxCell>
        <mxCell id="_myPesltfJKZzVE3mpp7-156" value="" style="shape=waypoint;sketch=0;fillStyle=solid;size=6;pointerEvents=1;points=[];fillColor=none;resizable=0;rotatable=0;perimeter=centerPerimeter;snapToPoint=1;" vertex="1" parent="1">
          <mxGeometry x="428" y="1120" width="20" height="20" as="geometry" />
        </mxCell>
        <mxCell id="_myPesltfJKZzVE3mpp7-157" value="" style="shape=waypoint;sketch=0;fillStyle=solid;size=6;pointerEvents=1;points=[];fillColor=none;resizable=0;rotatable=0;perimeter=centerPerimeter;snapToPoint=1;" vertex="1" parent="1">
          <mxGeometry x="428" y="1140" width="20" height="20" as="geometry" />
        </mxCell>
        <mxCell id="_myPesltfJKZzVE3mpp7-158" value="" style="shape=waypoint;sketch=0;fillStyle=solid;size=6;pointerEvents=1;points=[];fillColor=none;resizable=0;rotatable=0;perimeter=centerPerimeter;snapToPoint=1;" vertex="1" parent="1">
          <mxGeometry x="428" y="1160" width="20" height="20" as="geometry" />
        </mxCell>
        <mxCell id="_myPesltfJKZzVE3mpp7-159" value="" style="shape=waypoint;sketch=0;fillStyle=solid;size=6;pointerEvents=1;points=[];fillColor=none;resizable=0;rotatable=0;perimeter=centerPerimeter;snapToPoint=1;" vertex="1" parent="1">
          <mxGeometry x="428" y="1180" width="20" height="20" as="geometry" />
        </mxCell>
        <mxCell id="_myPesltfJKZzVE3mpp7-161" value="B" style="text;html=1;strokeColor=none;fillColor=none;align=center;verticalAlign=middle;whiteSpace=wrap;rounded=0;" vertex="1" parent="1">
          <mxGeometry x="383" y="1150" width="60" height="30" as="geometry" />
        </mxCell>
        <mxCell id="_myPesltfJKZzVE3mpp7-163" value="" style="endArrow=none;html=1;rounded=0;entryX=0.008;entryY=0.141;entryDx=0;entryDy=0;entryPerimeter=0;" edge="1" parent="1" source="_myPesltfJKZzVE3mpp7-149" target="_myPesltfJKZzVE3mpp7-142">
          <mxGeometry width="50" height="50" relative="1" as="geometry">
            <mxPoint x="460" y="1030" as="sourcePoint" />
            <mxPoint x="510" y="980" as="targetPoint" />
          </mxGeometry>
        </mxCell>
        <mxCell id="_myPesltfJKZzVE3mpp7-165" value="" style="endArrow=none;html=1;rounded=0;entryX=0.005;entryY=0.128;entryDx=0;entryDy=0;entryPerimeter=0;" edge="1" parent="1" source="_myPesltfJKZzVE3mpp7-150" target="_myPesltfJKZzVE3mpp7-144">
          <mxGeometry width="50" height="50" relative="1" as="geometry">
            <mxPoint x="460" y="1120" as="sourcePoint" />
            <mxPoint x="510" y="1070" as="targetPoint" />
          </mxGeometry>
        </mxCell>
        <mxCell id="_myPesltfJKZzVE3mpp7-166" value="" style="endArrow=none;html=1;rounded=0;" edge="1" parent="1" target="_myPesltfJKZzVE3mpp7-145">
          <mxGeometry width="50" height="50" relative="1" as="geometry">
            <mxPoint x="440" y="1000" as="sourcePoint" />
            <mxPoint x="590" y="1110" as="targetPoint" />
          </mxGeometry>
        </mxCell>
        <mxCell id="_myPesltfJKZzVE3mpp7-167" value="" style="endArrow=none;html=1;rounded=0;entryX=0;entryY=0.25;entryDx=0;entryDy=0;" edge="1" parent="1" source="_myPesltfJKZzVE3mpp7-152" target="_myPesltfJKZzVE3mpp7-146">
          <mxGeometry width="50" height="50" relative="1" as="geometry">
            <mxPoint x="460" y="1090" as="sourcePoint" />
            <mxPoint x="400" y="1020" as="targetPoint" />
          </mxGeometry>
        </mxCell>
        <mxCell id="_myPesltfJKZzVE3mpp7-168" value="" style="endArrow=none;html=1;rounded=0;entryX=0;entryY=0.75;entryDx=0;entryDy=0;" edge="1" parent="1" source="_myPesltfJKZzVE3mpp7-156" target="_myPesltfJKZzVE3mpp7-142">
          <mxGeometry width="50" height="50" relative="1" as="geometry">
            <mxPoint x="350" y="1130" as="sourcePoint" />
            <mxPoint x="400" y="1080" as="targetPoint" />
          </mxGeometry>
        </mxCell>
        <mxCell id="_myPesltfJKZzVE3mpp7-169" value="" style="endArrow=none;html=1;rounded=0;entryX=0;entryY=0.5;entryDx=0;entryDy=0;" edge="1" parent="1" target="_myPesltfJKZzVE3mpp7-144">
          <mxGeometry width="50" height="50" relative="1" as="geometry">
            <mxPoint x="440" y="1150" as="sourcePoint" />
            <mxPoint x="485" y="1105" as="targetPoint" />
          </mxGeometry>
        </mxCell>
        <mxCell id="_myPesltfJKZzVE3mpp7-170" value="" style="endArrow=none;html=1;rounded=0;entryX=0.024;entryY=0.602;entryDx=0;entryDy=0;entryPerimeter=0;" edge="1" parent="1" target="_myPesltfJKZzVE3mpp7-145">
          <mxGeometry width="50" height="50" relative="1" as="geometry">
            <mxPoint x="435" y="1170" as="sourcePoint" />
            <mxPoint x="485" y="1120" as="targetPoint" />
          </mxGeometry>
        </mxCell>
        <mxCell id="_myPesltfJKZzVE3mpp7-171" value="" style="endArrow=none;html=1;rounded=0;entryX=0;entryY=0.75;entryDx=0;entryDy=0;" edge="1" parent="1" target="_myPesltfJKZzVE3mpp7-146">
          <mxGeometry width="50" height="50" relative="1" as="geometry">
            <mxPoint x="435" y="1190" as="sourcePoint" />
            <mxPoint x="485" y="1140" as="targetPoint" />
          </mxGeometry>
        </mxCell>
        <UserObject label="A" placeholders="1" name="Variable" id="_myPesltfJKZzVE3mpp7-173">
          <mxCell style="text;html=1;strokeColor=none;fillColor=none;align=center;verticalAlign=middle;whiteSpace=wrap;overflow=hidden;" vertex="1" parent="1">
            <mxGeometry x="573" y="880" width="30" height="20" as="geometry" />
          </mxCell>
        </UserObject>
        <UserObject label="B" placeholders="1" name="Variable" id="_myPesltfJKZzVE3mpp7-174">
          <mxCell style="text;html=1;strokeColor=none;fillColor=none;align=center;verticalAlign=middle;whiteSpace=wrap;overflow=hidden;" vertex="1" parent="1">
            <mxGeometry x="571" y="940" width="30" height="20" as="geometry" />
          </mxCell>
        </UserObject>
        <UserObject label="A" placeholders="1" name="Variable" id="_myPesltfJKZzVE3mpp7-175">
          <mxCell style="text;html=1;strokeColor=none;fillColor=none;align=center;verticalAlign=middle;whiteSpace=wrap;overflow=hidden;" vertex="1" parent="1">
            <mxGeometry x="576" y="1005" width="27" height="20" as="geometry" />
          </mxCell>
        </UserObject>
        <UserObject label="B" placeholders="1" name="Variable" id="_myPesltfJKZzVE3mpp7-176">
          <mxCell style="text;html=1;strokeColor=none;fillColor=none;align=center;verticalAlign=middle;whiteSpace=wrap;overflow=hidden;" vertex="1" parent="1">
            <mxGeometry x="576" y="1070" width="30" height="20" as="geometry" />
          </mxCell>
        </UserObject>
        <UserObject label="A" placeholders="1" name="Variable" id="_myPesltfJKZzVE3mpp7-178">
          <mxCell style="text;html=1;strokeColor=none;fillColor=none;align=center;verticalAlign=middle;whiteSpace=wrap;overflow=hidden;" vertex="1" parent="1">
            <mxGeometry x="573" y="1140" width="30" height="20" as="geometry" />
          </mxCell>
        </UserObject>
        <UserObject label="B" placeholders="1" name="Variable" id="_myPesltfJKZzVE3mpp7-179">
          <mxCell style="text;html=1;strokeColor=none;fillColor=none;align=center;verticalAlign=middle;whiteSpace=wrap;overflow=hidden;" vertex="1" parent="1">
            <mxGeometry x="573" y="1195" width="30" height="20" as="geometry" />
          </mxCell>
        </UserObject>
        <UserObject label="A" placeholders="1" name="Variable" id="_myPesltfJKZzVE3mpp7-180">
          <mxCell style="text;html=1;strokeColor=none;fillColor=none;align=center;verticalAlign=middle;whiteSpace=wrap;overflow=hidden;" vertex="1" parent="1">
            <mxGeometry x="581" y="1253" width="30" height="20" as="geometry" />
          </mxCell>
        </UserObject>
        <UserObject label="B" placeholders="1" name="Variable" id="_myPesltfJKZzVE3mpp7-181">
          <mxCell style="text;html=1;strokeColor=none;fillColor=none;align=center;verticalAlign=middle;whiteSpace=wrap;overflow=hidden;" vertex="1" parent="1">
            <mxGeometry x="578" y="1302" width="30" height="20" as="geometry" />
          </mxCell>
        </UserObject>
        <mxCell id="_myPesltfJKZzVE3mpp7-183" value="" style="endArrow=none;html=1;rounded=0;" edge="1" parent="1" source="_myPesltfJKZzVE3mpp7-205">
          <mxGeometry width="50" height="50" relative="1" as="geometry">
            <mxPoint x="640" y="840" as="sourcePoint" />
            <mxPoint x="640" y="890" as="targetPoint" />
          </mxGeometry>
        </mxCell>
        <mxCell id="_myPesltfJKZzVE3mpp7-184" value="" style="endArrow=none;html=1;rounded=0;exitX=1;exitY=0.75;exitDx=0;exitDy=0;" edge="1" parent="1" source="_myPesltfJKZzVE3mpp7-142">
          <mxGeometry width="50" height="50" relative="1" as="geometry">
            <mxPoint x="660" y="1030" as="sourcePoint" />
            <mxPoint x="720" y="950" as="targetPoint" />
          </mxGeometry>
        </mxCell>
        <mxCell id="_myPesltfJKZzVE3mpp7-185" value="" style="endArrow=none;html=1;rounded=0;" edge="1" parent="1">
          <mxGeometry width="50" height="50" relative="1" as="geometry">
            <mxPoint x="720" y="1000" as="sourcePoint" />
            <mxPoint x="720" y="950" as="targetPoint" />
          </mxGeometry>
        </mxCell>
        <mxCell id="_myPesltfJKZzVE3mpp7-186" value="" style="endArrow=none;html=1;rounded=0;" edge="1" parent="1">
          <mxGeometry width="50" height="50" relative="1" as="geometry">
            <mxPoint x="640" y="1000" as="sourcePoint" />
            <mxPoint x="720" y="1000" as="targetPoint" />
          </mxGeometry>
        </mxCell>
        <mxCell id="_myPesltfJKZzVE3mpp7-187" value="" style="endArrow=none;html=1;rounded=0;exitX=0.5;exitY=0;exitDx=0;exitDy=0;" edge="1" parent="1" source="_myPesltfJKZzVE3mpp7-144">
          <mxGeometry width="50" height="50" relative="1" as="geometry">
            <mxPoint x="660" y="1030" as="sourcePoint" />
            <mxPoint x="640" y="1000" as="targetPoint" />
          </mxGeometry>
        </mxCell>
        <mxCell id="_myPesltfJKZzVE3mpp7-188" value="" style="endArrow=none;html=1;rounded=0;exitX=1;exitY=0.25;exitDx=0;exitDy=0;" edge="1" parent="1" source="_myPesltfJKZzVE3mpp7-144">
          <mxGeometry width="50" height="50" relative="1" as="geometry">
            <mxPoint x="660" y="1080" as="sourcePoint" />
            <mxPoint x="960" y="1040" as="targetPoint" />
          </mxGeometry>
        </mxCell>
        <mxCell id="_myPesltfJKZzVE3mpp7-189" value="" style="endArrow=none;html=1;rounded=0;exitX=1;exitY=0.75;exitDx=0;exitDy=0;" edge="1" parent="1" source="_myPesltfJKZzVE3mpp7-144">
          <mxGeometry width="50" height="50" relative="1" as="geometry">
            <mxPoint x="660" y="1080" as="sourcePoint" />
            <mxPoint x="720" y="1080" as="targetPoint" />
          </mxGeometry>
        </mxCell>
        <mxCell id="_myPesltfJKZzVE3mpp7-190" value="" style="endArrow=none;html=1;rounded=0;" edge="1" parent="1">
          <mxGeometry width="50" height="50" relative="1" as="geometry">
            <mxPoint x="720" y="1130" as="sourcePoint" />
            <mxPoint x="720" y="1080" as="targetPoint" />
          </mxGeometry>
        </mxCell>
        <mxCell id="_myPesltfJKZzVE3mpp7-191" value="" style="endArrow=none;html=1;rounded=0;" edge="1" parent="1">
          <mxGeometry width="50" height="50" relative="1" as="geometry">
            <mxPoint x="640" y="1130" as="sourcePoint" />
            <mxPoint x="720" y="1130" as="targetPoint" />
          </mxGeometry>
        </mxCell>
        <mxCell id="_myPesltfJKZzVE3mpp7-192" value="" style="endArrow=none;html=1;rounded=0;" edge="1" parent="1">
          <mxGeometry width="50" height="50" relative="1" as="geometry">
            <mxPoint x="640" y="1150" as="sourcePoint" />
            <mxPoint x="640" y="1130" as="targetPoint" />
          </mxGeometry>
        </mxCell>
        <mxCell id="_myPesltfJKZzVE3mpp7-193" value="" style="endArrow=none;html=1;rounded=0;exitX=1.016;exitY=0.61;exitDx=0;exitDy=0;exitPerimeter=0;" edge="1" parent="1" source="_myPesltfJKZzVE3mpp7-145">
          <mxGeometry width="50" height="50" relative="1" as="geometry">
            <mxPoint x="690" y="1200" as="sourcePoint" />
            <mxPoint x="720" y="1200" as="targetPoint" />
          </mxGeometry>
        </mxCell>
        <mxCell id="_myPesltfJKZzVE3mpp7-194" value="" style="endArrow=none;html=1;rounded=0;" edge="1" parent="1">
          <mxGeometry width="50" height="50" relative="1" as="geometry">
            <mxPoint x="720" y="1250" as="sourcePoint" />
            <mxPoint x="720" y="1200" as="targetPoint" />
          </mxGeometry>
        </mxCell>
        <mxCell id="_myPesltfJKZzVE3mpp7-195" value="" style="endArrow=none;html=1;rounded=0;" edge="1" parent="1">
          <mxGeometry width="50" height="50" relative="1" as="geometry">
            <mxPoint x="640" y="1250" as="sourcePoint" />
            <mxPoint x="720" y="1250" as="targetPoint" />
          </mxGeometry>
        </mxCell>
        <mxCell id="_myPesltfJKZzVE3mpp7-196" value="" style="endArrow=none;html=1;rounded=0;" edge="1" parent="1">
          <mxGeometry width="50" height="50" relative="1" as="geometry">
            <mxPoint x="640" y="1270" as="sourcePoint" />
            <mxPoint x="640" y="1250" as="targetPoint" />
          </mxGeometry>
        </mxCell>
        <mxCell id="_myPesltfJKZzVE3mpp7-197" value="" style="endArrow=none;html=1;rounded=0;exitX=1;exitY=0.25;exitDx=0;exitDy=0;" edge="1" parent="1">
          <mxGeometry width="50" height="50" relative="1" as="geometry">
            <mxPoint x="681" y="910" as="sourcePoint" />
            <mxPoint x="1080" y="910" as="targetPoint" />
          </mxGeometry>
        </mxCell>
        <mxCell id="_myPesltfJKZzVE3mpp7-198" value="" style="endArrow=none;html=1;rounded=0;exitX=1;exitY=0.25;exitDx=0;exitDy=0;" edge="1" parent="1">
          <mxGeometry width="50" height="50" relative="1" as="geometry">
            <mxPoint x="681" y="1169.5" as="sourcePoint" />
            <mxPoint x="1000" y="1170" as="targetPoint" />
          </mxGeometry>
        </mxCell>
        <mxCell id="_myPesltfJKZzVE3mpp7-199" value="" style="endArrow=none;html=1;rounded=0;exitX=1;exitY=0.25;exitDx=0;exitDy=0;" edge="1" parent="1">
          <mxGeometry width="50" height="50" relative="1" as="geometry">
            <mxPoint x="680" y="1299.5" as="sourcePoint" />
            <mxPoint x="1040" y="1300" as="targetPoint" />
            <Array as="points">
              <mxPoint x="719" y="1299.5" />
            </Array>
          </mxGeometry>
        </mxCell>
        <mxCell id="_myPesltfJKZzVE3mpp7-200" value="" style="endArrow=none;html=1;rounded=0;exitX=1;exitY=0.25;exitDx=0;exitDy=0;" edge="1" parent="1">
          <mxGeometry width="50" height="50" relative="1" as="geometry">
            <mxPoint x="680" y="1330" as="sourcePoint" />
            <mxPoint x="1080" y="1330" as="targetPoint" />
          </mxGeometry>
        </mxCell>
        <UserObject label="CIN" placeholders="1" name="Variable" id="_myPesltfJKZzVE3mpp7-201">
          <mxCell style="text;html=1;strokeColor=none;fillColor=none;align=center;verticalAlign=middle;whiteSpace=wrap;overflow=hidden;" vertex="1" parent="1">
            <mxGeometry x="640" y="870" width="32" height="20" as="geometry" />
          </mxCell>
        </UserObject>
        <UserObject label="CIN" placeholders="1" name="Variable" id="_myPesltfJKZzVE3mpp7-202">
          <mxCell style="text;html=1;strokeColor=none;fillColor=none;align=center;verticalAlign=middle;whiteSpace=wrap;overflow=hidden;" vertex="1" parent="1">
            <mxGeometry x="640" y="1000" width="32" height="20" as="geometry" />
          </mxCell>
        </UserObject>
        <UserObject label="CIN" placeholders="1" name="Variable" id="_myPesltfJKZzVE3mpp7-203">
          <mxCell style="text;html=1;strokeColor=none;fillColor=none;align=center;verticalAlign=middle;whiteSpace=wrap;overflow=hidden;" vertex="1" parent="1">
            <mxGeometry x="640" y="1130" width="32" height="20" as="geometry" />
          </mxCell>
        </UserObject>
        <UserObject label="CIN" placeholders="1" name="Variable" id="_myPesltfJKZzVE3mpp7-204">
          <mxCell style="text;html=1;strokeColor=none;fillColor=none;align=center;verticalAlign=middle;whiteSpace=wrap;overflow=hidden;" vertex="1" parent="1">
            <mxGeometry x="640" y="1250" width="32" height="20" as="geometry" />
          </mxCell>
        </UserObject>
        <mxCell id="_myPesltfJKZzVE3mpp7-206" value="" style="endArrow=none;html=1;rounded=0;" edge="1" parent="1" target="_myPesltfJKZzVE3mpp7-205">
          <mxGeometry width="50" height="50" relative="1" as="geometry">
            <mxPoint x="640" y="840" as="sourcePoint" />
            <mxPoint x="640" y="890" as="targetPoint" />
          </mxGeometry>
        </mxCell>
        <mxCell id="_myPesltfJKZzVE3mpp7-205" value="" style="shape=waypoint;sketch=0;fillStyle=solid;size=6;pointerEvents=1;points=[];fillColor=none;resizable=0;rotatable=0;perimeter=centerPerimeter;snapToPoint=1;" vertex="1" parent="1">
          <mxGeometry x="630" y="830" width="20" height="20" as="geometry" />
        </mxCell>
        <UserObject label="SUM" placeholders="1" name="Variable" id="_myPesltfJKZzVE3mpp7-207">
          <mxCell style="text;html=1;strokeColor=none;fillColor=none;align=center;verticalAlign=middle;whiteSpace=wrap;overflow=hidden;" vertex="1" parent="1">
            <mxGeometry x="680" y="890" width="32" height="20" as="geometry" />
          </mxCell>
        </UserObject>
        <UserObject label="COUT" placeholders="1" name="Variable" id="_myPesltfJKZzVE3mpp7-208">
          <mxCell style="text;html=1;strokeColor=none;fillColor=none;align=center;verticalAlign=middle;whiteSpace=wrap;overflow=hidden;" vertex="1" parent="1">
            <mxGeometry x="682" y="930" width="38" height="20" as="geometry" />
          </mxCell>
        </UserObject>
        <UserObject label="SUM" placeholders="1" name="Variable" id="_myPesltfJKZzVE3mpp7-209">
          <mxCell style="text;html=1;strokeColor=none;fillColor=none;align=center;verticalAlign=middle;whiteSpace=wrap;overflow=hidden;" vertex="1" parent="1">
            <mxGeometry x="681" y="1020" width="32" height="20" as="geometry" />
          </mxCell>
        </UserObject>
        <UserObject label="COUT" placeholders="1" name="Variable" id="_myPesltfJKZzVE3mpp7-210">
          <mxCell style="text;html=1;strokeColor=none;fillColor=none;align=center;verticalAlign=middle;whiteSpace=wrap;overflow=hidden;" vertex="1" parent="1">
            <mxGeometry x="681" y="1060" width="38" height="20" as="geometry" />
          </mxCell>
        </UserObject>
        <UserObject label="SUM" placeholders="1" name="Variable" id="_myPesltfJKZzVE3mpp7-211">
          <mxCell style="text;html=1;strokeColor=none;fillColor=none;align=center;verticalAlign=middle;whiteSpace=wrap;overflow=hidden;" vertex="1" parent="1">
            <mxGeometry x="682" y="1150" width="38" height="20" as="geometry" />
          </mxCell>
        </UserObject>
        <UserObject label="COUT" placeholders="1" name="Variable" id="_myPesltfJKZzVE3mpp7-212">
          <mxCell style="text;html=1;strokeColor=none;fillColor=none;align=center;verticalAlign=middle;whiteSpace=wrap;overflow=hidden;" vertex="1" parent="1">
            <mxGeometry x="682" y="1181" width="38" height="20" as="geometry" />
          </mxCell>
        </UserObject>
        <UserObject label="SUM" placeholders="1" name="Variable" id="_myPesltfJKZzVE3mpp7-213">
          <mxCell style="text;html=1;strokeColor=none;fillColor=none;align=center;verticalAlign=middle;whiteSpace=wrap;overflow=hidden;" vertex="1" parent="1">
            <mxGeometry x="680" y="1283" width="38" height="20" as="geometry" />
          </mxCell>
        </UserObject>
        <UserObject label="COUT" placeholders="1" name="Variable" id="_myPesltfJKZzVE3mpp7-214">
          <mxCell style="text;html=1;strokeColor=none;fillColor=none;align=center;verticalAlign=middle;whiteSpace=wrap;overflow=hidden;" vertex="1" parent="1">
            <mxGeometry x="681" y="1310" width="38" height="20" as="geometry" />
          </mxCell>
        </UserObject>
        <mxCell id="_myPesltfJKZzVE3mpp7-215" value="" style="endArrow=none;html=1;rounded=0;" edge="1" parent="1">
          <mxGeometry width="50" height="50" relative="1" as="geometry">
            <mxPoint x="960" y="1040" as="sourcePoint" />
            <mxPoint x="960" y="960" as="targetPoint" />
          </mxGeometry>
        </mxCell>
        <mxCell id="_myPesltfJKZzVE3mpp7-216" value="" style="endArrow=none;html=1;rounded=0;" edge="1" parent="1" source="_myPesltfJKZzVE3mpp7-222">
          <mxGeometry width="50" height="50" relative="1" as="geometry">
            <mxPoint x="960" y="960" as="sourcePoint" />
            <mxPoint x="1080" y="960" as="targetPoint" />
          </mxGeometry>
        </mxCell>
        <mxCell id="_myPesltfJKZzVE3mpp7-217" value="" style="endArrow=none;html=1;rounded=0;" edge="1" parent="1">
          <mxGeometry width="50" height="50" relative="1" as="geometry">
            <mxPoint x="1000" y="1170" as="sourcePoint" />
            <mxPoint x="1000" y="1000" as="targetPoint" />
          </mxGeometry>
        </mxCell>
        <mxCell id="_myPesltfJKZzVE3mpp7-218" value="" style="endArrow=none;html=1;rounded=0;" edge="1" parent="1">
          <mxGeometry width="50" height="50" relative="1" as="geometry">
            <mxPoint x="1000" y="1000" as="sourcePoint" />
            <mxPoint x="1080" y="1000" as="targetPoint" />
          </mxGeometry>
        </mxCell>
        <mxCell id="_myPesltfJKZzVE3mpp7-219" value="" style="endArrow=none;html=1;rounded=0;" edge="1" parent="1">
          <mxGeometry width="50" height="50" relative="1" as="geometry">
            <mxPoint x="1040" y="1300" as="sourcePoint" />
            <mxPoint x="1040" y="1040" as="targetPoint" />
          </mxGeometry>
        </mxCell>
        <mxCell id="_myPesltfJKZzVE3mpp7-220" value="" style="endArrow=none;html=1;rounded=0;" edge="1" parent="1">
          <mxGeometry width="50" height="50" relative="1" as="geometry">
            <mxPoint x="1040" y="1040" as="sourcePoint" />
            <mxPoint x="1080" y="1040" as="targetPoint" />
          </mxGeometry>
        </mxCell>
        <mxCell id="_myPesltfJKZzVE3mpp7-221" value="" style="shape=waypoint;sketch=0;fillStyle=solid;size=6;pointerEvents=1;points=[];fillColor=none;resizable=0;rotatable=0;perimeter=centerPerimeter;snapToPoint=1;" vertex="1" parent="1">
          <mxGeometry x="1070" y="900" width="20" height="20" as="geometry" />
        </mxCell>
        <mxCell id="_myPesltfJKZzVE3mpp7-223" value="" style="endArrow=none;html=1;rounded=0;" edge="1" parent="1" target="_myPesltfJKZzVE3mpp7-222">
          <mxGeometry width="50" height="50" relative="1" as="geometry">
            <mxPoint x="960" y="960" as="sourcePoint" />
            <mxPoint x="1080" y="960" as="targetPoint" />
          </mxGeometry>
        </mxCell>
        <mxCell id="_myPesltfJKZzVE3mpp7-222" value="" style="shape=waypoint;sketch=0;fillStyle=solid;size=6;pointerEvents=1;points=[];fillColor=none;resizable=0;rotatable=0;perimeter=centerPerimeter;snapToPoint=1;" vertex="1" parent="1">
          <mxGeometry x="1070" y="950" width="20" height="20" as="geometry" />
        </mxCell>
        <mxCell id="_myPesltfJKZzVE3mpp7-224" value="" style="shape=waypoint;sketch=0;fillStyle=solid;size=6;pointerEvents=1;points=[];fillColor=none;resizable=0;rotatable=0;perimeter=centerPerimeter;snapToPoint=1;" vertex="1" parent="1">
          <mxGeometry x="1070" y="990" width="20" height="20" as="geometry" />
        </mxCell>
        <mxCell id="_myPesltfJKZzVE3mpp7-225" value="" style="shape=waypoint;sketch=0;fillStyle=solid;size=6;pointerEvents=1;points=[];fillColor=none;resizable=0;rotatable=0;perimeter=centerPerimeter;snapToPoint=1;" vertex="1" parent="1">
          <mxGeometry x="1070" y="1030" width="20" height="20" as="geometry" />
        </mxCell>
        <mxCell id="_myPesltfJKZzVE3mpp7-226" value="" style="shape=waypoint;sketch=0;fillStyle=solid;size=6;pointerEvents=1;points=[];fillColor=none;resizable=0;rotatable=0;perimeter=centerPerimeter;snapToPoint=1;" vertex="1" parent="1">
          <mxGeometry x="1070" y="1320" width="20" height="20" as="geometry" />
        </mxCell>
        <UserObject label="sum[0]" placeholders="1" name="Variable" id="_myPesltfJKZzVE3mpp7-227">
          <mxCell style="text;html=1;strokeColor=none;fillColor=none;align=center;verticalAlign=middle;whiteSpace=wrap;overflow=hidden;" vertex="1" parent="1">
            <mxGeometry x="813" y="890" width="80" height="20" as="geometry" />
          </mxCell>
        </UserObject>
        <UserObject label="sum[1]" placeholders="1" name="Variable" id="_myPesltfJKZzVE3mpp7-228">
          <mxCell style="text;html=1;strokeColor=none;fillColor=none;align=center;verticalAlign=middle;whiteSpace=wrap;overflow=hidden;" vertex="1" parent="1">
            <mxGeometry x="813" y="1020" width="80" height="20" as="geometry" />
          </mxCell>
        </UserObject>
        <UserObject label="sum[2]" placeholders="1" name="Variable" id="_myPesltfJKZzVE3mpp7-229">
          <mxCell style="text;html=1;strokeColor=none;fillColor=none;align=center;verticalAlign=middle;whiteSpace=wrap;overflow=hidden;" vertex="1" parent="1">
            <mxGeometry x="813" y="1150" width="80" height="20" as="geometry" />
          </mxCell>
        </UserObject>
        <UserObject label="&lt;i&gt;SUM&lt;/i&gt;" placeholders="1" name="Variable" id="_myPesltfJKZzVE3mpp7-230">
          <mxCell style="text;html=1;strokeColor=none;fillColor=none;align=center;verticalAlign=middle;whiteSpace=wrap;overflow=hidden;" vertex="1" parent="1">
            <mxGeometry x="813" y="1280" width="80" height="20" as="geometry" />
          </mxCell>
        </UserObject>
        <mxCell id="_myPesltfJKZzVE3mpp7-231" value="" style="rounded=0;whiteSpace=wrap;html=1;fillColor=none;" vertex="1" parent="1">
          <mxGeometry x="430" y="950" width="20" height="80" as="geometry" />
        </mxCell>
        <mxCell id="_myPesltfJKZzVE3mpp7-232" value="" style="rounded=0;whiteSpace=wrap;html=1;fillColor=none;" vertex="1" parent="1">
          <mxGeometry x="428" y="1120" width="20" height="80" as="geometry" />
        </mxCell>
        <mxCell id="_myPesltfJKZzVE3mpp7-233" value="" style="rounded=0;whiteSpace=wrap;html=1;fillColor=none;" vertex="1" parent="1">
          <mxGeometry x="1060" y="890" width="40" height="170" as="geometry" />
        </mxCell>
        <UserObject label="SUM" placeholders="1" name="Variable" id="_myPesltfJKZzVE3mpp7-234">
          <mxCell style="text;html=1;strokeColor=none;fillColor=none;align=center;verticalAlign=middle;whiteSpace=wrap;overflow=hidden;" vertex="1" parent="1">
            <mxGeometry x="1080" y="965" width="80" height="20" as="geometry" />
          </mxCell>
        </UserObject>
        <UserObject label="COUT" placeholders="1" name="Variable" id="_myPesltfJKZzVE3mpp7-235">
          <mxCell style="text;html=1;strokeColor=none;fillColor=none;align=center;verticalAlign=middle;whiteSpace=wrap;overflow=hidden;" vertex="1" parent="1">
            <mxGeometry x="1083" y="1320" width="80" height="20" as="geometry" />
          </mxCell>
        </UserObject>
        <UserObject label="&lt;i&gt;COUT&lt;/i&gt;" placeholders="1" name="Variable" id="_myPesltfJKZzVE3mpp7-236">
          <mxCell style="text;html=1;strokeColor=none;fillColor=none;align=center;verticalAlign=middle;whiteSpace=wrap;overflow=hidden;" vertex="1" parent="1">
            <mxGeometry x="813" y="1310" width="80" height="20" as="geometry" />
          </mxCell>
        </UserObject>
        <UserObject label="carry[0]" placeholders="1" name="Variable" id="_myPesltfJKZzVE3mpp7-238">
          <mxCell style="text;html=1;strokeColor=none;fillColor=none;align=center;verticalAlign=middle;whiteSpace=wrap;overflow=hidden;" vertex="1" parent="1">
            <mxGeometry x="723" y="970" width="58" height="20" as="geometry" />
          </mxCell>
        </UserObject>
        <UserObject label="carry[1]" placeholders="1" name="Variable" id="_myPesltfJKZzVE3mpp7-239">
          <mxCell style="text;html=1;strokeColor=none;fillColor=none;align=center;verticalAlign=middle;whiteSpace=wrap;overflow=hidden;" vertex="1" parent="1">
            <mxGeometry x="722" y="1100" width="58" height="20" as="geometry" />
          </mxCell>
        </UserObject>
        <UserObject label="carry[2]" placeholders="1" name="Variable" id="_myPesltfJKZzVE3mpp7-240">
          <mxCell style="text;html=1;strokeColor=none;fillColor=none;align=center;verticalAlign=middle;whiteSpace=wrap;overflow=hidden;" vertex="1" parent="1">
            <mxGeometry x="722" y="1220" width="58" height="20" as="geometry" />
          </mxCell>
        </UserObject>
        <UserObject label="1&#39;b0" placeholders="1" name="Variable" id="_myPesltfJKZzVE3mpp7-242">
          <mxCell style="text;html=1;strokeColor=none;fillColor=none;align=center;verticalAlign=middle;whiteSpace=wrap;overflow=hidden;" vertex="1" parent="1">
            <mxGeometry x="613" y="817" width="58" height="20" as="geometry" />
          </mxCell>
        </UserObject>
        <UserObject label="A[0]" placeholders="1" name="Variable" id="_myPesltfJKZzVE3mpp7-243">
          <mxCell style="text;html=1;strokeColor=none;fillColor=none;align=center;verticalAlign=middle;whiteSpace=wrap;overflow=hidden;fontStyle=2" vertex="1" parent="1">
            <mxGeometry x="433" y="925" width="80" height="20" as="geometry" />
          </mxCell>
        </UserObject>
        <UserObject label="A[1]" placeholders="1" name="Variable" id="_myPesltfJKZzVE3mpp7-244">
          <mxCell style="text;html=1;strokeColor=none;fillColor=none;align=center;verticalAlign=middle;whiteSpace=wrap;overflow=hidden;fontStyle=2" vertex="1" parent="1">
            <mxGeometry x="433" y="971" width="80" height="20" as="geometry" />
          </mxCell>
        </UserObject>
        <UserObject label="A[2]" placeholders="1" name="Variable" id="_myPesltfJKZzVE3mpp7-245">
          <mxCell style="text;html=1;strokeColor=none;fillColor=none;align=center;verticalAlign=middle;whiteSpace=wrap;overflow=hidden;fontStyle=2" vertex="1" parent="1">
            <mxGeometry x="432" y="1004" width="80" height="20" as="geometry" />
          </mxCell>
        </UserObject>
        <UserObject label="A[3]" placeholders="1" name="Variable" id="_myPesltfJKZzVE3mpp7-246">
          <mxCell style="text;html=1;strokeColor=none;fillColor=none;align=center;verticalAlign=middle;whiteSpace=wrap;overflow=hidden;fontStyle=2" vertex="1" parent="1">
            <mxGeometry x="433" y="1037" width="80" height="20" as="geometry" />
          </mxCell>
        </UserObject>
        <UserObject label="B[0]" placeholders="1" name="Variable" id="_myPesltfJKZzVE3mpp7-247">
          <mxCell style="text;html=1;strokeColor=none;fillColor=none;align=center;verticalAlign=middle;whiteSpace=wrap;overflow=hidden;fontStyle=2" vertex="1" parent="1">
            <mxGeometry x="413" y="1090" width="80" height="20" as="geometry" />
          </mxCell>
        </UserObject>
        <UserObject label="B[1]" placeholders="1" name="Variable" id="_myPesltfJKZzVE3mpp7-249">
          <mxCell style="text;html=1;strokeColor=none;fillColor=none;align=center;verticalAlign=middle;whiteSpace=wrap;overflow=hidden;fontStyle=2" vertex="1" parent="1">
            <mxGeometry x="423" y="1115" width="80" height="20" as="geometry" />
          </mxCell>
        </UserObject>
        <UserObject label="B[2]" placeholders="1" name="Variable" id="_myPesltfJKZzVE3mpp7-250">
          <mxCell style="text;html=1;strokeColor=none;fillColor=none;align=center;verticalAlign=middle;whiteSpace=wrap;overflow=hidden;fontStyle=2" vertex="1" parent="1">
            <mxGeometry x="425" y="1156" width="80" height="20" as="geometry" />
          </mxCell>
        </UserObject>
        <UserObject label="B[3]" placeholders="1" name="Variable" id="_myPesltfJKZzVE3mpp7-251">
          <mxCell style="text;html=1;strokeColor=none;fillColor=none;align=center;verticalAlign=middle;whiteSpace=wrap;overflow=hidden;fontStyle=2" vertex="1" parent="1">
            <mxGeometry x="427" y="1192" width="80" height="20" as="geometry" />
          </mxCell>
        </UserObject>
        <mxCell id="_myPesltfJKZzVE3mpp7-253" value="&lt;ol style=&quot;&quot;&gt;&lt;li style=&quot;font-size: 15px;&quot;&gt;&lt;b&gt;Instance Ref_names&lt;/b&gt;&amp;nbsp;: fa0, fa1, fa2, fa3&lt;/li&gt;&lt;li style=&quot;font-size: 15px;&quot;&gt;&lt;b&gt;Ports &lt;/b&gt;: A[3:0], B[3:0], SUM, COUT&lt;/li&gt;&lt;li style=&quot;font-size: 15px;&quot;&gt;&lt;b&gt;Pins &lt;/b&gt;: (A,B,CIN,SUM,COUT), (A,B,CIN,SUM,COUT), (A,B,CIN,SUM,COUT), (A,B,CIN,SUM,COUT)&lt;/li&gt;&lt;li style=&quot;font-size: 15px;&quot;&gt;&lt;b&gt;Nets &lt;/b&gt;: sum[0], sum[1], sum[2], carry[0], carry[1], carry[2]&lt;/li&gt;&lt;li style=&quot;font-size: 15px;&quot;&gt;&lt;b&gt;Port derived nets &lt;/b&gt;:&amp;nbsp;&lt;/li&gt;&lt;ol style=&quot;font-size: 15px;&quot;&gt;&lt;li&gt;A[0] -&amp;gt; A &lt;i&gt;fa0 &lt;/i&gt;&lt;b&gt;A[0]&lt;/b&gt;&lt;/li&gt;&lt;li&gt;A[1] -&amp;gt; A &lt;i&gt;fa1 &lt;/i&gt;&lt;b&gt;A[1]&lt;/b&gt;&lt;/li&gt;&lt;li style=&quot;border-color: var(--border-color);&quot;&gt;A[2] -&amp;gt; A&amp;nbsp;&lt;i style=&quot;border-color: var(--border-color);&quot;&gt;fa2&amp;nbsp;&lt;/i&gt;&lt;b style=&quot;border-color: var(--border-color);&quot;&gt;A[2]&lt;/b&gt;&lt;/li&gt;&lt;li style=&quot;border-color: var(--border-color);&quot;&gt;A[3] -&amp;gt; A&amp;nbsp;&lt;i style=&quot;border-color: var(--border-color);&quot;&gt;fa3&amp;nbsp;&lt;/i&gt;&lt;b style=&quot;border-color: var(--border-color);&quot;&gt;A[3]&lt;/b&gt;&lt;/li&gt;&lt;li style=&quot;border-color: var(--border-color);&quot;&gt;B[0] -&amp;gt; A&amp;nbsp;&lt;span style=&quot;border-color: var(--border-color);&quot;&gt;&lt;i&gt;fa0&amp;nbsp;&lt;/i&gt;&lt;b style=&quot;&quot;&gt;B&lt;/b&gt;&lt;/span&gt;&lt;b style=&quot;border-color: var(--border-color);&quot;&gt;[0]&lt;/b&gt;&lt;/li&gt;&lt;li style=&quot;border-color: var(--border-color);&quot;&gt;B[1] -&amp;gt; A&amp;nbsp;&lt;i style=&quot;border-color: var(--border-color);&quot;&gt;fa1&amp;nbsp;&lt;/i&gt;&lt;span style=&quot;border-color: var(--border-color);&quot;&gt;&lt;b&gt;B&lt;/b&gt;&lt;/span&gt;&lt;b style=&quot;border-color: var(--border-color);&quot;&gt;[1]&lt;/b&gt;&lt;/li&gt;&lt;li style=&quot;border-color: var(--border-color);&quot;&gt;B[2] -&amp;gt; A&amp;nbsp;&lt;i style=&quot;border-color: var(--border-color);&quot;&gt;fa2&amp;nbsp;&lt;/i&gt;&lt;span style=&quot;border-color: var(--border-color);&quot;&gt;&lt;b&gt;B&lt;/b&gt;&lt;/span&gt;&lt;b style=&quot;border-color: var(--border-color);&quot;&gt;[2]&lt;/b&gt;&lt;/li&gt;&lt;li style=&quot;border-color: var(--border-color);&quot;&gt;B[3] -&amp;gt; A&amp;nbsp;&lt;i style=&quot;border-color: var(--border-color);&quot;&gt;fa3&amp;nbsp;&lt;/i&gt;&lt;span style=&quot;border-color: var(--border-color);&quot;&gt;&lt;b&gt;B&lt;/b&gt;&lt;/span&gt;&lt;b style=&quot;border-color: var(--border-color);&quot;&gt;[3]&lt;/b&gt;&lt;/li&gt;&lt;li style=&quot;border-color: var(--border-color);&quot;&gt;SUM -&amp;gt; SUM[3] &lt;i&gt;fa3 &lt;/i&gt;&lt;b style=&quot;&quot;&gt;SUM&lt;/b&gt;&lt;/li&gt;&lt;li style=&quot;border-color: var(--border-color);&quot;&gt;COUT -&amp;gt; COUT fa3 &lt;b&gt;COUT&lt;/b&gt;&lt;/li&gt;&lt;/ol&gt;&lt;/ol&gt;" style="text;strokeColor=none;fillColor=none;html=1;whiteSpace=wrap;verticalAlign=middle;overflow=hidden;" vertex="1" parent="1">
          <mxGeometry x="100" y="1400" width="460" height="330" as="geometry" />
        </mxCell>
        <UserObject label="&lt;span style=&quot;font-weight: normal;&quot;&gt;&lt;i&gt;B&lt;/i&gt;&lt;/span&gt;" placeholders="1" name="Variable" id="_myPesltfJKZzVE3mpp7-254">
          <mxCell style="text;html=1;strokeColor=none;fillColor=none;align=center;verticalAlign=middle;whiteSpace=wrap;overflow=hidden;fontStyle=1" vertex="1" parent="1">
            <mxGeometry x="363" y="100" width="80" height="20" as="geometry" />
          </mxCell>
        </UserObject>
        <UserObject label="&lt;span style=&quot;font-weight: normal;&quot;&gt;&lt;i&gt;A&lt;/i&gt;&lt;/span&gt;" placeholders="1" name="Variable" id="_myPesltfJKZzVE3mpp7-255">
          <mxCell style="text;html=1;strokeColor=none;fillColor=none;align=center;verticalAlign=middle;whiteSpace=wrap;overflow=hidden;fontStyle=1" vertex="1" parent="1">
            <mxGeometry x="363" y="220" width="80" height="20" as="geometry" />
          </mxCell>
        </UserObject>
        <UserObject label="&lt;span style=&quot;font-weight: normal;&quot;&gt;&lt;i&gt;CIN&lt;/i&gt;&lt;/span&gt;" placeholders="1" name="Variable" id="_myPesltfJKZzVE3mpp7-256">
          <mxCell style="text;html=1;strokeColor=none;fillColor=none;align=center;verticalAlign=middle;whiteSpace=wrap;overflow=hidden;fontStyle=1" vertex="1" parent="1">
            <mxGeometry x="376" y="321" width="80" height="20" as="geometry" />
          </mxCell>
        </UserObject>
        <UserObject label="&lt;span style=&quot;font-weight: normal;&quot;&gt;&lt;i&gt;CIN&lt;/i&gt;&lt;/span&gt;" placeholders="1" name="Variable" id="_myPesltfJKZzVE3mpp7-257">
          <mxCell style="text;html=1;strokeColor=none;fillColor=none;align=center;verticalAlign=middle;whiteSpace=wrap;overflow=hidden;fontStyle=1" vertex="1" parent="1">
            <mxGeometry x="475" y="403" width="80" height="20" as="geometry" />
          </mxCell>
        </UserObject>
        <UserObject label="&lt;i&gt;Z&lt;/i&gt;" placeholders="1" name="Variable" id="_myPesltfJKZzVE3mpp7-258">
          <mxCell style="text;html=1;strokeColor=none;fillColor=none;align=center;verticalAlign=middle;whiteSpace=wrap;overflow=hidden;" vertex="1" parent="1">
            <mxGeometry x="793" y="80" width="50" height="20" as="geometry" />
          </mxCell>
        </UserObject>
        <UserObject label="&lt;i&gt;Z&lt;/i&gt;" placeholders="1" name="Variable" id="_myPesltfJKZzVE3mpp7-259">
          <mxCell style="text;html=1;strokeColor=none;fillColor=none;align=center;verticalAlign=middle;whiteSpace=wrap;overflow=hidden;" vertex="1" parent="1">
            <mxGeometry x="793" y="200" width="50" height="20" as="geometry" />
          </mxCell>
        </UserObject>
        <mxCell id="_myPesltfJKZzVE3mpp7-261" value="&lt;font style=&quot;font-size: 20px;&quot;&gt;FourbitAdder&lt;/font&gt;" style="text;strokeColor=none;fillColor=none;html=1;fontSize=24;fontStyle=1;verticalAlign=middle;align=center;" vertex="1" parent="1">
          <mxGeometry x="420" y="749" width="100" height="40" as="geometry" />
        </mxCell>
      </root>
    </mxGraphModel>
  </diagram>
</mxfile>
